<?xml version="1.0" encoding="UTF-8"?>
<svg id="_레이어_2" data-name="레이어 2" xmlns="http://www.w3.org/2000/svg" viewBox="0 0 33.87 28.49">
  <defs>
    <style>
      .cls-1 {
        fill: #fff;
      }

      .cls-2 {
        fill: #282b91;
      }
    </style>
  </defs>
  <g id="Layer_1" data-name="Layer 1">
    <g>
      <path class="cls-1" d="m28.52,0H5.35C2.39,0,0,2.4,0,5.37v12.73c0,2.96,2.39,5.37,5.35,5.37h7.98l2.72,4.43s.03.05.09.13c.16.27.45.46.79.46s.63-.18.79-.45c.07-.08.09-.13.09-.13l2.72-4.43h7.98c2.95,0,5.35-2.4,5.35-5.37V5.37c0-2.96-2.4-5.37-5.35-5.37Z"/>
      <g>
        <path class="cls-2" d="m7.52,9.33s-.92,0-1.76.82v-3.29h-2.07v8.64h2.1v-.68s.49.89,1.74.89c0,0,2.92-.11,2.92-3.22,0,0-.11-3.16-2.92-3.16Zm-.46,4.56c-.74,0-1.33-.6-1.33-1.33s.6-1.33,1.33-1.33,1.33.6,1.33,1.33-.6,1.33-1.33,1.33Z"/>
        <path class="cls-2" d="m11.11,6.67v2s.95-.04.95,1.72v5.11h2v-5.59s.09-3.25-2.94-3.25Z"/>
        <path class="cls-2" d="m18.94,9.36s-3.43,0-3.43,3.2c0,0-.11,3.16,3.43,3.16,0,0,3.5,0,3.5-3.16,0,0,.11-3.2-3.5-3.2Zm0,4.53c-.74,0-1.33-.6-1.33-1.33s.6-1.33,1.33-1.33,1.33.6,1.33,1.33-.6,1.33-1.33,1.33Z"/>
        <path class="cls-2" d="m28.17,9.57v.58s-.6-.79-1.74-.79c0,0-2.93-.12-2.93,3.18,0,0-.03,3.08,2.85,3.08,0,0,1.18.05,1.82-.79v.48s.15,1.51-1.32,1.51h-.5v1.84h.81s3.03.03,3.03-3.24v-5.85h-2.01Zm-1.24,4.32c-.74,0-1.33-.6-1.33-1.33s.6-1.33,1.33-1.33,1.33.6,1.33,1.33-.6,1.33-1.33,1.33Z"/>
      </g>
    </g>
  </g>
</svg>