<svg xmlns="http://www.w3.org/2000/svg" viewBox="0 0 90.5 235.76"><defs><style>.cls-1{fill:#f8f8f8;}</style></defs><title>Asset 2</title><g id="Layer_2" data-name="Layer 2"><g id="Layer_1-2" data-name="Layer 1"><path class="cls-1" d="M44.46,205.07A10.28,10.28,0,1,0,54.74,194.8,10.28,10.28,0,0,0,44.46,205.07Z"/><path class="cls-1" d="M34.19,126.06a10.28,10.28,0,1,0,10.27-10.28A10.27,10.27,0,0,0,34.19,126.06Z"/><path class="cls-1" d="M18,30.16A10.28,10.28,0,1,0,28.28,19.88,10.27,10.27,0,0,0,18,30.16Z"/><circle class="cls-1" cx="27.69" cy="179.23" r="7.27"/><circle class="cls-1" cx="79.33" cy="90.71" r="7.27"/><path class="cls-1" d="M70.83,158.64a7.27,7.27,0,1,0,7.27-7.27A7.27,7.27,0,0,0,70.83,158.64Z"/><path class="cls-1" d="M24.68,230.62a5.14,5.14,0,1,0,5.14-5.14A5.14,5.14,0,0,0,24.68,230.62Z"/><circle class="cls-1" cx="5.14" cy="58.02" r="5.14"/><path class="cls-1" d="M80.23,5.14A5.14,5.14,0,1,0,85.36,0,5.13,5.13,0,0,0,80.23,5.14Z"/><circle class="cls-1" cx="45.82" cy="76.18" r="7.27"/></g></g></svg>