<?xml version="1.0" encoding="UTF-8"?>
<svg id="_레이어_2" data-name="레이어 2" xmlns="http://www.w3.org/2000/svg" viewBox="0 0 31.97 32">
  <defs>
    <style>
      .cls-1 {
        fill: #fff;
      }
    </style>
  </defs>
  <g id="Layer_1" data-name="Layer 1">
    <path class="cls-1" d="m9.6,32c-.88,0-1.63-.31-2.26-.94s-.94-1.38-.94-2.26.31-1.63.94-2.26,1.38-.94,2.26-.94,1.63.31,2.26.94.94,1.38.94,2.26-.31,1.63-.94,2.26-1.38.94-2.26.94Zm16,0c-.88,0-1.63-.31-2.26-.94s-.94-1.38-.94-2.26.31-1.63.94-2.26c.63-.63,1.38-.94,2.26-.94s1.63.31,2.26.94.94,1.38.94,2.26-.31,1.63-.94,2.26-1.38.94-2.26.94ZM8.24,6.4l3.84,8h11.2l4.4-8H8.24Zm-1.52-3.2h23.6c.61,0,1.08.27,1.4.82.32.55.33,1.1.04,1.66l-5.68,10.24c-.29.53-.69.95-1.18,1.24s-1.03.44-1.62.44h-11.92l-1.76,3.2h19.2v3.2H9.6c-1.2,0-2.11-.53-2.72-1.58s-.64-2.1-.08-3.14l2.16-3.92L3.2,3.2H0V0h5.2l1.52,3.2Zm5.36,11.2h11.2-11.2Z"/>
  </g>
</svg>