<?xml version="1.0" encoding="UTF-8"?>
<svg id="_레이어_2" data-name="레이어 2" xmlns="http://www.w3.org/2000/svg" viewBox="0 0 175.77 139.01">
  <defs>
    <style>
      .cls-1 {
        fill: #ffbd52;
        opacity: .8;
      }
    </style>
  </defs>
  <g id="Layer_1" data-name="Layer 1">
    <path class="cls-1" d="m.86,0c27.91.3,55.8,5.7,81.47,16.64,28.22,12.02,53.67,30.8,72.66,54.89,2.46,3.12,5.01,6.49,8.73,7.89,2.36.89,4.98.9,7.39,1.67,2.41.77,4.78,2.75,4.66,5.28-2.05,3.18-6.12,5.07-9.85,5.69-3.73.62-7.64.73-11.07,2.32-4.49,2.07-7.49,6.31-10.78,10-8.67,9.74-20.61,16.52-33.41,18.98-8.03,1.54-16.44,1.46-24.11,4.32-4.37,1.63-8.35,4.16-12.6,6.08-7.89,3.55-16.81,6.06-25.4,5.03,4.28-4.21,8.34-8.76,11.1-14.09,2.76-5.33,4.14-11.56,2.84-17.42-.96-4.33-3.31-8.38-5.32-12.43-5.02.34-10.02,1.11-14.89,2.39-1.51.4-3,.89-4.43,1.52-2.48,1.09-4.77,2.35-6.93,3.79-1.77,1.18-4.01-.52-3.3-2.52,1.5-4.27,2.57-8.64,2.55-13.14-.01-2.68-.42-5.34-1.02-7.95-1.92-8.27-5.94-16.14-11.5-22.6-1.37-1.58-.05-4.02,2.01-3.66,7.49,1.3,14.59,4.94,21.22,8.84,5.89,3.47,11.73,7.22,17.96,9.96.69-1.06,1.38-2.13,2-3.21,3.4-5.91,5.02-12.94,3.92-19.66-.68-4.15-2.35-8.08-4.37-11.77-2.82-5.17-6.41-10.01-11.08-13.59-3.66-2.81-7.89-4.78-12.07-6.73C25.33,10.97,13.3,4.88.63,1.67-.34,1.43-.13-.01.86,0Z"/>
  </g>
</svg>