<?xml version="1.0" encoding="UTF-8"?>
<svg id="_레이어_2" data-name="레이어 2" xmlns="http://www.w3.org/2000/svg" viewBox="0 0 689.99 214.3">
  <defs>
    <style>
      .cls-1 {
        opacity: .7;
      }

      .cls-2 {
        fill: #f7651d;
      }
    </style>
  </defs>
  <g id="Layer_1" data-name="Layer 1">
    <g class="cls-1">
      <g>
        <path class="cls-2" d="m141.77,96.11c11.01-3.53,20.02-12.6,23.12-23.75-7.73-.52-15.61,1.23-22.4,4.96-5.32,2.93-9.93,7.1-13.47,12.03-8.58-1.22-16.74-4.1-24.76-7.59.83-2.47,1.74-4.92,2.82-7.29-6.37-2.71-12.68-5.71-18.16-9.94-5.48-4.22-10.12-9.79-12.25-16.37-8.73,3.58-16.53,9.29-22.78,16.36-12.76-.91-25.75,1.38-37.36,6.74-4.68,2.16-9.14,4.79-13.75,7.09-3.15,1.57-3.76,5.89-1.13,8.23,4.35,3.88,9.43,6.87,14.87,9.31,7.19,3.22,14.66,5.9,22.31,7.83,1.11,1.35,2.22,2.69,3.5,3.88,3.28,3.03,7.35,5.38,11.79,5.81.96.09,2,.08,2.8-.46,1.6-1.08,1.38-3.47.9-5.34-.07-.27-.17-.53-.24-.8,2.14.15,4.28.24,6.42.25.71,0,1.42-.08,2.13-.09,2.61,2.44,5.27,4.83,8.32,6.68,3.81,2.31,8.28,3.8,12.71,3.34.96-.1,1.97-.32,2.65-1.01,1.35-1.38.66-3.68-.18-5.41-.86-1.77-1.79-3.51-2.78-5.2,4.66-.5,9.31-1,13.97-1.5,4.43,4.39,9.48,8.16,15.02,11.05,1.94,1.01,4.41,1.9,6.2.64,1.69-1.18,1.82-3.6,1.68-5.66-.19-2.78-.62-5.54-1.17-8.28,1.99-.16,3.98-.28,5.97-.29,2.21,4.94,5.34,9.47,9.28,13.17,5.65,5.3,12.85,8.94,20.47,10.35-.24-11.57-6.72-22.58-16.52-28.73Z"/>
        <path class="cls-2" d="m305.19,52.91c11.26-2.66,20.95-10.98,24.91-21.85-7.67-1.12-15.65,0-22.72,3.19-5.54,2.5-10.45,6.3-14.37,10.94-8.45-1.89-16.36-5.41-24.09-9.52,1.03-2.4,2.13-4.77,3.39-7.05-6.13-3.2-12.19-6.69-17.33-11.33-5.13-4.64-9.32-10.55-10.92-17.29-8.99,2.89-17.21,7.96-24,14.51-12.65-1.91-25.78-.65-37.78,3.78-4.83,1.78-9.49,4.06-14.26,5.99-3.27,1.32-4.21,5.57-1.77,8.12,4.03,4.21,8.86,7.59,14.1,10.46,6.91,3.78,14.16,7.03,21.62,9.56,1,1.43,2,2.86,3.18,4.14,3.03,3.28,6.91,5.94,11.3,6.72.95.17,1.99.23,2.83-.24,1.68-.95,1.65-3.35,1.32-5.25-.05-.28-.12-.55-.18-.82,2.12.32,4.25.58,6.38.75.71.06,1.42.03,2.13.08,2.41,2.64,4.88,5.23,7.77,7.32,3.62,2.61,7.95,4.45,12.41,4.33.97-.03,1.99-.17,2.72-.8,1.46-1.27.95-3.61.24-5.41-.72-1.83-1.51-3.64-2.37-5.41,4.68-.13,9.36-.26,14.04-.39,4.07,4.73,8.81,8.88,14.1,12.2,1.86,1.16,4.24,2.24,6.13,1.13,1.78-1.05,2.1-3.45,2.12-5.51.03-2.79-.18-5.57-.52-8.34,2,0,3.99.04,5.98.18,1.82,5.1,4.58,9.86,8.22,13.86,5.22,5.73,12.11,9.92,19.59,11.93.67-11.55-4.92-23.04-14.21-29.94Z"/>
        <path class="cls-2" d="m317.3,182.76c9.33-2.71,17.09-10.11,19.95-19.4-6.48-.61-13.13.67-18.91,3.65-4.53,2.34-8.5,5.73-11.58,9.79-7.17-1.22-13.95-3.83-20.61-6.95.76-2.06,1.58-4.09,2.54-6.06-5.28-2.42-10.51-5.09-15.02-8.76-4.5-3.67-8.27-8.45-9.9-14.02-7.41,2.81-14.08,7.41-19.5,13.2-10.69-1.06-21.64.56-31.52,4.79-3.98,1.7-7.78,3.81-11.7,5.63-2.68,1.25-3.29,4.85-1.14,6.88,3.56,3.36,7.76,5.99,12.27,8.16,5.96,2.87,12.17,5.29,18.54,7.08.9,1.16,1.8,2.31,2.85,3.33,2.68,2.62,6.05,4.69,9.76,5.15.81.1,1.68.11,2.36-.32,1.37-.87,1.24-2.88.88-4.46-.05-.23-.13-.45-.18-.68,1.79.18,3.58.3,5.39.35.6.02,1.2-.03,1.79-.03,2.13,2.11,4.31,4.18,6.83,5.8,3.15,2.03,6.86,3.38,10.59,3.1.81-.06,1.66-.23,2.25-.79,1.17-1.12.64-3.07-.03-4.55-.68-1.51-1.42-2.98-2.22-4.43,3.92-.31,7.84-.62,11.76-.93,3.62,3.79,7.77,7.07,12.35,9.62,1.61.9,3.66,1.7,5.19.68,1.45-.95,1.61-2.98,1.54-4.71-.09-2.34-.39-4.67-.79-6.98,1.67-.09,3.35-.14,5.02-.11,1.74,4.19,4.26,8.07,7.49,11.27,4.62,4.58,10.58,7.8,16.94,9.16.07-9.72-5.12-19.11-13.2-24.49Z"/>
        <path class="cls-2" d="m466.62,117.38c8.9-3.89,15.66-12.22,17.3-21.8-6.51.22-12.93,2.35-18.29,6.05-4.2,2.9-7.69,6.77-10.23,11.19-7.27-.29-14.33-2.01-21.33-4.24.49-2.14,1.04-4.26,1.74-6.33-5.55-1.72-11.08-3.69-16.02-6.76-4.94-3.06-9.29-7.32-11.62-12.64-6.99,3.73-13.02,9.16-17.64,15.59-10.73.32-21.39,3.33-30.64,8.8-3.73,2.2-7.23,4.78-10.88,7.09-2.5,1.58-2.64,5.23-.24,6.97,3.96,2.88,8.46,4.94,13.21,6.52,6.28,2.08,12.75,3.68,19.3,4.65,1.04,1.03,2.08,2.06,3.25,2.94,2.99,2.25,6.6,3.87,10.34,3.85.81,0,1.68-.11,2.3-.63,1.25-1.04.86-3.02.3-4.54-.08-.22-.19-.43-.27-.65,1.8-.05,3.59-.16,5.39-.34.6-.06,1.18-.19,1.78-.26,2.38,1.82,4.81,3.59,7.52,4.88,3.38,1.61,7.24,2.48,10.9,1.71.79-.17,1.62-.44,2.13-1.07,1.01-1.27.24-3.13-.61-4.51-.87-1.41-1.79-2.78-2.77-4.11,3.85-.81,7.69-1.62,11.54-2.43,4.08,3.3,8.61,6.01,13.48,7.96,1.71.68,3.84,1.21,5.24.01,1.31-1.13,1.21-3.16.92-4.87-.39-2.31-.99-4.58-1.68-6.82,1.65-.3,3.3-.57,4.97-.75,2.27,3.94,5.26,7.46,8.87,10.21,5.17,3.95,11.49,6.38,17.98,6.91-1.18-9.64-7.53-18.29-16.23-22.6Z"/>
        <path class="cls-2" d="m600.86,53.06c6.06-4.06,9.93-11.13,9.85-18.42-4.78,1.04-9.24,3.47-12.7,6.92-2.71,2.7-4.77,6.04-6.06,9.64-5.41.76-10.86.44-16.33-.27.07-1.64.2-3.28.44-4.91-4.33-.53-8.68-1.24-12.74-2.84-4.06-1.6-7.84-4.16-10.28-7.78-4.66,3.7-8.39,8.51-10.94,13.89-7.89,1.68-15.36,5.33-21.46,10.61-2.46,2.13-4.7,4.5-7.09,6.7-1.64,1.5-1.25,4.22.76,5.18,3.31,1.59,6.92,2.52,10.64,3.04,4.92.7,9.91,1.01,14.88.84.91.62,1.81,1.24,2.8,1.74,2.51,1.26,5.39,1.97,8.16,1.46.6-.11,1.22-.3,1.62-.77.78-.93.23-2.34-.39-3.39-.09-.15-.19-.29-.29-.45,1.32-.28,2.63-.6,3.93-.97.43-.12.85-.3,1.28-.43,2.01,1.03,4.04,2.01,6.21,2.59,2.71.74,5.68.86,8.28-.2.56-.23,1.14-.54,1.43-1.08.58-1.07-.24-2.34-1.06-3.25-.83-.92-1.7-1.81-2.6-2.66,2.73-1.12,5.47-2.23,8.2-3.35,3.45,1.89,7.17,3.29,11.03,4.07,1.35.28,3,.38,3.87-.69.82-1.01.47-2.5.03-3.72-.6-1.65-1.34-3.25-2.16-4.81,1.18-.44,2.36-.86,3.57-1.22,2.2,2.6,4.89,4.8,7.92,6.36,4.35,2.22,9.35,3.17,14.21,2.7-2.17-6.97-8.02-12.5-15.02-14.52Z"/>
        <path class="cls-2" d="m442.18,44.62c4.81-2.11,8.46-6.63,9.34-11.81-3.52.13-6.99,1.28-9.89,3.29-2.27,1.57-4.15,3.67-5.52,6.07-3.93-.15-7.75-1.07-11.54-2.28.26-1.16.56-2.3.94-3.43-3-.93-6-1.99-8.67-3.64-2.67-1.65-5.03-3.95-6.3-6.83-3.78,2.03-7.03,4.97-9.53,8.45-5.81.18-11.57,1.82-16.57,4.79-2.01,1.19-3.91,2.59-5.88,3.85-1.35.86-1.42,2.83-.13,3.77,2.15,1.55,4.58,2.67,7.16,3.51,3.4,1.12,6.9,1.98,10.44,2.5.56.56,1.13,1.11,1.76,1.59,1.62,1.22,3.57,2.09,5.6,2.07.44,0,.91-.06,1.24-.34.67-.56.46-1.63.16-2.46-.04-.12-.1-.23-.15-.35.97-.03,1.94-.09,2.91-.19.32-.03.64-.1.96-.14,1.29.98,2.61,1.94,4.07,2.63,1.83.87,3.92,1.33,5.9.92.43-.09.88-.24,1.15-.58.55-.69.13-1.69-.34-2.44-.47-.76-.97-1.5-1.5-2.22,2.08-.44,4.16-.88,6.24-1.33,2.21,1.78,4.67,3.25,7.3,4.29.92.37,2.08.65,2.83,0,.71-.61.65-1.71.5-2.64-.21-1.25-.54-2.48-.92-3.69.89-.16,1.79-.31,2.69-.41,1.23,2.13,2.85,4.03,4.81,5.52,2.8,2.13,6.22,3.44,9.73,3.72-.65-5.22-4.09-9.89-8.8-12.21Z"/>
        <path class="cls-2" d="m614.06,139.96c4.54-2.65,7.64-7.56,7.91-12.81-3.48.53-6.8,2.08-9.44,4.41-2.07,1.82-3.7,4.13-4.79,6.66-3.92.3-7.83-.17-11.73-.93.13-1.18.29-2.35.53-3.51-3.09-.57-6.19-1.28-9.03-2.61-2.85-1.33-5.45-3.34-7.05-6.05-3.52,2.45-6.41,5.75-8.49,9.5-5.75.85-11.28,3.15-15.9,6.67-1.86,1.42-3.58,3.03-5.4,4.5-1.24,1.01-1.09,2.98.31,3.76,2.31,1.29,4.86,2.12,7.51,2.66,3.51.72,7.08,1.17,10.66,1.27.62.49,1.25.98,1.93,1.37,1.75,1.02,3.79,1.66,5.8,1.41.44-.05.89-.16,1.2-.48.6-.64.27-1.68-.13-2.46-.06-.11-.13-.22-.19-.33.96-.14,1.92-.32,2.87-.52.32-.07.62-.17.94-.25,1.4.83,2.81,1.62,4.35,2.14,1.92.65,4.05.87,5.97.23.42-.14.84-.34,1.08-.71.47-.74-.07-1.7-.61-2.38-.56-.7-1.14-1.38-1.75-2.03,2.02-.68,4.03-1.36,6.05-2.04,2.4,1.51,5.01,2.68,7.75,3.42.96.26,2.14.41,2.81-.33.63-.69.45-1.78.19-2.68-.36-1.22-.82-2.4-1.34-3.56.87-.27,1.74-.51,2.62-.72,1.47,1.97,3.3,3.67,5.41,4.92,3.03,1.79,6.58,2.7,10.1,2.57-1.25-5.11-5.21-9.35-10.16-11.11Z"/>
        <path class="cls-2" d="m154.3,177.49c3.16-.67,5.92-2.94,7.09-5.96-2.14-.36-4.37-.09-6.37.75-1.56.67-2.96,1.7-4.08,2.97-2.35-.58-4.54-1.61-6.67-2.8.3-.66.62-1.32.99-1.95-1.69-.93-3.37-1.94-4.77-3.27-1.41-1.33-2.54-3-2.95-4.89-2.53.75-4.85,2.12-6.79,3.91-3.52-.61-7.2-.34-10.58.83-1.36.47-2.67,1.08-4.02,1.59-.92.35-1.21,1.53-.54,2.26,1.1,1.2,2.43,2.17,3.88,3,1.91,1.1,3.91,2.05,5.98,2.8.27.41.54.81.86,1.18.83.93,1.89,1.7,3.12,1.94.27.05.55.08.79-.05.48-.25.48-.93.4-1.46-.01-.08-.03-.15-.04-.23.59.1,1.18.19,1.78.25.2.02.4.02.6.03.66.75,1.33,1.49,2.13,2.09,1,.75,2.2,1.29,3.44,1.28.27,0,.56-.03.77-.21.42-.35.29-1,.1-1.51-.19-.52-.4-1.02-.63-1.52,1.31,0,2.62-.02,3.92-.03,1.11,1.35,2.41,2.53,3.87,3.49.51.34,1.17.65,1.71.35.5-.28.61-.95.63-1.53.03-.78-.02-1.56-.09-2.33.56.01,1.11.03,1.67.09.48,1.43,1.22,2.78,2.21,3.92,1.42,1.63,3.32,2.84,5.4,3.45.26-3.22-1.24-6.46-3.79-8.45Z"/>
        <path class="cls-2" d="m261.56,105.27c3.06-1.03,5.55-3.59,6.37-6.72-2.16-.12-4.36.4-6.24,1.47-1.48.84-2.75,2.02-3.72,3.41-2.4-.31-4.69-1.08-6.95-2.03.22-.69.47-1.38.76-2.05-1.79-.73-3.56-1.55-5.11-2.71-1.55-1.16-2.86-2.7-3.48-4.53-2.43,1.03-4.58,2.66-6.3,4.65-3.57-.21-7.19.48-10.41,2.02-1.3.62-2.54,1.37-3.81,2.03-.88.45-1.03,1.66-.29,2.3,1.23,1.07,2.66,1.89,4.19,2.55,2.02.87,4.12,1.59,6.26,2.11.31.37.63.74.99,1.07.93.83,2.07,1.48,3.32,1.58.27.02.56.01.78-.14.44-.31.37-.97.23-1.5-.02-.08-.05-.15-.07-.22.6.03,1.2.05,1.8.05.2,0,.4-.03.6-.03.74.67,1.49,1.33,2.35,1.84,1.07.63,2.33,1.03,3.56.89.27-.03.55-.1.74-.29.37-.39.17-1.03-.07-1.51-.25-.49-.51-.97-.8-1.44,1.3-.16,2.6-.31,3.9-.47,1.25,1.21,2.68,2.25,4.24,3.03.55.28,1.24.51,1.74.16.47-.34.49-1.01.45-1.59-.06-.78-.19-1.55-.36-2.31.56-.05,1.11-.09,1.67-.1.64,1.37,1.53,2.63,2.64,3.64,1.6,1.46,3.62,2.45,5.76,2.82-.11-3.23-1.96-6.28-4.72-7.97Z"/>
        <path class="cls-2" d="m683.22,84.21c2.65-1.85,4.31-5.01,4.22-8.24-2.11.5-4.07,1.61-5.57,3.17-1.18,1.22-2.07,2.71-2.6,4.32-2.39.38-4.81.28-7.24.01.02-.73.06-1.46.15-2.18-1.92-.2-3.86-.48-5.67-1.16-1.81-.68-3.51-1.78-4.62-3.36-2.04,1.68-3.65,3.84-4.73,6.24-3.48.81-6.76,2.49-9.42,4.88-1.07.96-2.04,2.03-3.09,3.03-.71.68-.52,1.88.38,2.29,1.48.68,3.08,1.06,4.74,1.26,2.18.27,4.4.37,6.6.25.41.27.81.54,1.25.75,1.12.54,2.41.83,3.63.58.26-.05.54-.14.71-.35.34-.42.08-1.04-.2-1.5-.04-.07-.09-.13-.13-.19.58-.14,1.16-.29,1.74-.46.19-.06.37-.14.56-.2.9.44,1.81.86,2.77,1.1,1.21.3,2.52.33,3.67-.16.25-.11.5-.25.62-.49.25-.48-.13-1.04-.49-1.43-.37-.4-.77-.79-1.17-1.16,1.2-.52,2.4-1.03,3.61-1.55,1.54.81,3.2,1.4,4.92,1.71.6.11,1.33.14,1.71-.34.35-.45.19-1.11-.02-1.65-.28-.73-.62-1.43-.99-2.11.52-.21,1.04-.4,1.57-.57,1,1.14,2.2,2.09,3.56,2.75,1.95.95,4.17,1.33,6.32,1.08-1.02-3.07-3.65-5.47-6.78-6.31Z"/>
        <path class="cls-2" d="m472.56,201.08c4.74-2.27,8.23-6.91,8.93-12.12-3.51.25-6.95,1.52-9.77,3.62-2.21,1.65-4.03,3.81-5.32,6.25-3.94-.02-7.79-.81-11.61-1.88.22-1.16.48-2.32.82-3.46-3.03-.83-6.06-1.78-8.79-3.35-2.73-1.56-5.16-3.78-6.53-6.61-3.71,2.15-6.86,5.2-9.24,8.77-5.8.38-11.5,2.21-16.4,5.35-1.97,1.26-3.82,2.72-5.75,4.04-1.32.9-1.33,2.88,0,3.77,2.2,1.48,4.67,2.51,7.27,3.27,3.43,1.01,6.96,1.74,10.52,2.14.58.54,1.16,1.07,1.81,1.53,1.66,1.16,3.64,1.97,5.67,1.88.44-.02.9-.09,1.23-.38.65-.58.41-1.65.07-2.46-.05-.12-.11-.23-.16-.35.97-.06,1.94-.16,2.91-.29.32-.04.64-.12.95-.17,1.32.94,2.67,1.85,4.16,2.49,1.86.81,3.96,1.2,5.93.72.43-.11.87-.27,1.13-.62.52-.7.07-1.7-.42-2.43-.5-.74-1.02-1.47-1.58-2.17,2.06-.51,4.13-1.03,6.19-1.54,2.27,1.7,4.77,3.09,7.44,4.04.94.34,2.1.58,2.83-.09.69-.64.6-1.73.41-2.65-.26-1.24-.62-2.46-1.04-3.65.89-.19,1.78-.37,2.67-.5,1.3,2.08,2.99,3.93,4.99,5.35,2.87,2.04,6.34,3.23,9.85,3.39-.82-5.19-4.42-9.74-9.21-11.91Z"/>
      </g>
    </g>
  </g>
</svg>