<svg xmlns="http://www.w3.org/2000/svg" viewBox="0 0 232.9 250.36"><defs><style>.cls-1{fill:#e29393;opacity:0.8;}</style></defs><title>Asset 1</title><g id="Layer_2" data-name="Layer 2"><g id="Layer_1-2" data-name="Layer 1"><path class="cls-1" d="M200.48,121.79c-2.14-.91-4.39-1.62-6.64-2.34-4.1-1.29-8-2.51-11-5-3.25-2.6-5.36-6.43-7.59-10.49-2.46-4.49-5-9.12-9.33-12.38-3.62-2.73-7.89-4-12-5.3-4.37-1.32-8.49-2.58-11.41-5.39s-4.33-7-5.8-11.3a50.65,50.65,0,0,0-3.71-9c-4.39-7.7-12.4-12.37-18.05-15.22-1.86-.94-3.76-1.83-5.66-2.72-4.93-2.3-9.59-4.49-13.74-7.54a28.28,28.28,0,0,1-6.25-6.38A10.18,10.18,0,0,0,87,17.16C74,5.06,56.49-1.5,40.65.29A45.84,45.84,0,0,0,1.85,33.68C-2.5,49.27,1,68,10.64,82.91a10.17,10.17,0,0,0,11.45,4.22,31.5,31.5,0,0,0,9.16,12.64c4.29,3.69,9.2,6.45,14,9.12,1.79,1,3.59,2,5.35,3.07,4.84,2.91,11.64,7.56,14.84,14.27a45.49,45.49,0,0,1,2.68,8.29c1.25,4.86,2.55,9.89,6.13,13.88s8.34,5.83,13,7.63c3.76,1.46,7.31,2.84,10,5.22,3.21,2.83,5.09,6.93,7.07,11.27,2,4.5,4.18,9.15,8,12.7,3.58,3.33,8,5.09,12.26,6.79,2,.82,4.08,1.62,6,2.62,8.15,4.19,14.94,12.24,19.12,22.67,3.66,9.11,5.14,18.85,6.24,30.67a2.63,2.63,0,1,0,5.23-.49c-1-10.62-2.47-21.86-6.59-32.14-4.66-11.6-12.32-20.62-21.59-25.39-2.08-1.06-4.27-1.95-6.46-2.82-4-1.59-7.77-3.1-10.63-5.76-3-2.83-4.87-6.82-6.79-11-2.13-4.66-4.33-9.47-8.38-13-3.41-3-7.57-4.6-11.6-6.17-4.25-1.65-8.27-3.2-11-6.23s-3.8-7.25-5-11.7a50,50,0,0,0-3-9.22c-3.81-8-11.45-13.26-16.87-16.52-1.81-1.08-3.64-2.12-5.49-3.16-4.73-2.66-9.2-5.17-13.09-8.52A25.54,25.54,0,0,1,27,84.92c2.74-1.29,5.44-2.66,8.08-4.14a12.36,12.36,0,0,0,3.64,3.74c5.94,3.81,14.72,1.08,20.1,5.65,6.15,5.24,3.53,16.3,9.42,21.83,4.27,4,11.16,3.35,16.27,6.23,10.46,5.89,8.58,22.75,17.75,30.5,7.45,6.29,19.09,4.05,27.53,8.93,6.7,3.88,10.18,11.51,12.69,18.83s4.66,15.11,9.94,20.77c-2.27-7.25-2.4-14.95-3.13-22.51s-2.71-15.51-8.28-20.68c-9.94-9.22-27.93-6.66-35.9-17.62-5.84-8-4.18-21-12.52-26.41-5.59-3.62-13.87-2.22-18.37-7.12-3.91-4.27-2.91-11.17-5.89-16.13C64,79.58,53.73,79.46,46.39,75.36c-.44-.25-.81-.56-1.23-.83A148,148,0,0,0,60.22,62.88a33.14,33.14,0,0,0,7.55,9.18c4.3,3.69,9.22,6.46,14,9.13,1.78,1,3.56,2,5.31,3C91.9,87.15,98.7,91.8,101.9,98.52a46.43,46.43,0,0,1,2.68,8.28c1.26,4.86,2.55,9.89,6.13,13.89s8.34,5.82,13,7.62c3.76,1.46,7.31,2.84,10,5.23,3.22,2.82,5.09,6.92,7.07,11.26,2.06,4.5,4.18,9.15,8,12.71,3.57,3.32,8,5.08,12.25,6.78,2,.82,4.08,1.62,6,2.62,8.15,4.19,14.94,12.24,19.12,22.67,3.66,9.12,5.14,18.86,6.23,30.67a2.62,2.62,0,0,0,4.21,1.85,2.6,2.6,0,0,0,1-2.33c-1-10.62-2.46-21.86-6.59-32.15-4.65-11.6-12.32-20.62-21.59-25.39-2.08-1.06-4.27-1.94-6.46-2.82-4-1.59-7.77-3.1-10.63-5.75-3-2.84-4.86-6.82-6.79-11-2.12-4.65-4.32-9.46-8.38-13-3.41-3-7.57-4.61-11.59-6.18-4.26-1.65-8.28-3.2-11-6.23s-3.81-7.25-5-11.69a50.83,50.83,0,0,0-3-9.23c-3.8-8-11.45-13.26-16.87-16.52-1.79-1.08-3.62-2.11-5.45-3.13-4.74-2.67-9.23-5.19-13.13-8.55a26.86,26.86,0,0,1-7-9c2-1.93,4-3.91,6-6a11.45,11.45,0,0,0,2,1.64c5.94,3.81,14.73,1.07,20.1,5.65,6.15,5.23,3.54,16.29,9.42,21.82,4.27,4,11.17,3.35,16.28,6.23,10.46,5.9,8.57,22.76,17.75,30.5,7.44,6.29,19.09,4,27.52,8.93,6.7,3.88,10.18,11.51,12.7,18.83s4.65,15.12,9.94,20.77c-2.27-7.25-2.41-14.94-3.14-22.51s-2.71-15.51-8.28-20.68c-9.94-9.21-27.92-6.66-35.9-17.62-5.84-8-4.18-21-12.52-26.41-5.59-3.61-13.87-2.21-18.37-7.12-3.9-4.26-2.91-11.17-5.89-16.12-4.33-7.21-14.6-7.34-21.94-11.44a19.82,19.82,0,0,1-1.87-1.27q4.33-5.26,8.24-10.87A34.93,34.93,0,0,0,92.4,39.4c4.56,3.36,9.67,5.76,14.62,8.07,1.85.87,3.71,1.73,5.53,2.65,5,2.54,12.16,6.66,15.84,13.14a45.88,45.88,0,0,1,3.3,8.06c1.61,4.75,3.28,9.67,7.13,13.39s8.76,5.19,13.52,6.64c3.86,1.18,7.51,2.29,10.39,4.47,3.41,2.58,5.59,6.53,7.88,10.71s4.85,8.81,8.92,12.07c3.81,3.05,8.35,4.49,12.73,5.87,2.09.66,4.18,1.31,6.17,2.16,8.44,3.57,15.81,11.09,20.76,21.18,4.32,8.84,6.52,18.44,8.48,30.13a2.65,2.65,0,0,0,3,2.16,2.7,2.7,0,0,0,1.16-.5,2.63,2.63,0,0,0,1-2.53c-1.77-10.52-4.08-21.62-9-31.57C218.4,134.27,210.08,125.85,200.48,121.79Z"/></g></g></svg>