<?xml version="1.0" encoding="UTF-8"?>
<svg id="_레이어_2" data-name="레이어 2" xmlns="http://www.w3.org/2000/svg" viewBox="0 0 31 31">
  <defs>
    <style>
      .cls-1 {
        fill: #fff;
      }
    </style>
  </defs>
  <g id="Layer_1" data-name="Layer 1">
    <path class="cls-1" d="m28.59,31l-10.85-10.85c-.86.69-1.85,1.23-2.97,1.64s-2.31.6-3.57.6c-3.13,0-5.78-1.08-7.94-3.25-2.17-2.17-3.25-4.82-3.25-7.94S1.08,5.42,3.25,3.25C5.42,1.08,8.07,0,11.19,0s5.78,1.08,7.94,3.25,3.25,4.82,3.25,7.94c0,1.26-.2,2.45-.6,3.57s-.95,2.11-1.64,2.97l10.85,10.85-2.41,2.41Zm-17.39-12.06c2.15,0,3.98-.75,5.49-2.26s2.26-3.34,2.26-5.49-.75-3.98-2.26-5.49c-1.51-1.51-3.34-2.26-5.49-2.26s-3.98.75-5.49,2.26c-1.51,1.51-2.26,3.34-2.26,5.49s.75,3.98,2.26,5.49,3.34,2.26,5.49,2.26Z"/>
  </g>
</svg>