<?xml version="1.0" encoding="UTF-8"?>
<svg id="_레이어_2" data-name="레이어 2" xmlns="http://www.w3.org/2000/svg" xmlns:xlink="http://www.w3.org/1999/xlink" viewBox="0 0 1925 1061">
  <defs>
    <style>
      .cls-1 {
        fill: #4bbee3;
      }

      .cls-2 {
        fill: #52d0f8;
      }

      .cls-3 {
        fill: #a8e6ff;
      }

      .cls-4 {
        clip-path: url(#clippath);
      }

      .cls-5 {
        fill: none;
      }

      .cls-6 {
        fill: #e29393;
        opacity: .8;
      }

      .cls-7 {
        fill: #009ade;
      }

      .cls-8 {
        fill: #f8f8f8;
      }
    </style>
    <clipPath id="clippath">
      <rect class="cls-5" width="1925" height="1061"/>
    </clipPath>
  </defs>
  <g id="Layer_1" data-name="Layer 1">
    <g class="cls-4">
      <g>
        <rect class="cls-2" x="-12.01" y="418" width="1934.01" height="3597"/>
        <path class="cls-3" d="m1977.05,947l-45.67-727.03c-17.3-28.46-49.44-4.82-66.53,23.92-17.09,28.73-36.1,65.65-61.8,60.92-26.93-4.96-41.47-54.06-67.96-62.79-25.51-8.41-49.37,23.95-75.49,25.44-63.12,3.62-75.83-152.91-136.82-177.17-31.86-12.67-64.82,17.5-85.87,55.02-21.05,37.51-34.96,83.12-57.24,119.05-22.28,35.93-57.98,61.34-88.22,41.86-20.15-12.99-35.09-44.03-56.99-46.9-21.13-2.77-39.62,22.19-60.73,25.18-29.5,4.17-53.44-34.54-67.78-72.84-14.34-38.3-26.04-82.41-51.48-104.86-45.55-40.19-104.47,15.09-131.73,82.31-17.21,42.44-36.03,97.9-69.51,96.09-27.62-1.5-46.85-43.93-73.91-52.25-33.49-10.3-62.23,33.36-84.7,71.45-22.47,38.09-55.21,78.23-87.01,59.62-43.23-25.29-47.46-140.9-93.96-140.47-18.93.17-35.04,22.59-53.94,24.38-26.91,2.55-47-36.56-56.15-74.01-9.15-37.46-13.7-79.77-32.82-107.86-26.89-39.5-73.63-33.6-104.78-1.63-31.14,31.97-50.18,83.25-67.32,133.22-11.23,32.75-22.47,66.47-40.39,91.89-17.92,25.43-44.32,41.26-68.02,30.2-9.9-4.62-18.64-13.51-28.39-18.79-22.19-12.02-48.94-2.81-65.24,22.46-16.3,25.27-21.23,65.17-12.02,97.32v526.29h1992.47Z"/>
        <rect class="cls-2" x="-13.01" y="823" width="1930.01" height="128"/>
        <g>
          <path class="cls-2" d="m1436.19,572.63c29.03,36.27,51.13,78.77,59.46,124.46,8.33,45.69,2.19,94.66-21.26,134.76-18.9,32.32-48.14,57.72-80.52,76.56-32.38,18.84-67.95,31.5-103.76,42.54,5.53-1.05,12.81-1.95,18.43-1.95h606.44v-215.37c-33.82,0-59.16-31.06-86.91-50.38-35.78-24.92-71.56-49.84-107.34-74.76-29.29-20.4-58.77-40.91-91.13-55.97-32.37-15.06-68.1-24.54-103.69-21.58-35.58,2.95-68.89,12.73-89.73,41.69Z"/>
          <path class="cls-8" d="m1638.3,672.92c-8.15,0-14.66,8.25-22.8,7.92-9.35-.37-14.37-12.05-12.56-21.21,1.81-9.17,7.86-16.86,11.47-25.49,3.6-8.62,3.97-20.16-3.52-25.75-11.54-8.62-29.45,4.47-41.99-2.63-6.94-3.93-9.46-12.69-10-20.64-.54-7.95.2-16.24-2.81-23.62-3.01-7.38-11.7-13.36-18.91-9.94-6.71,6.47-3.6,17.45-2.06,26.64,1.54,9.19-2.72,22.05-11.95,20.68-10.54-1.57-13.17-20.79-23.67-19.01-7.83,1.33-7.98,12.59-5.36,20.08,2.62,7.49,5.08,17.69-1.72,21.79-8.2,4.95-16.58-5.98-20.31-14.8-3.73-8.82-13.67-19-20.89-12.71-7.32,6.38,1.63,17.51,3.49,27.04,1.66,8.51-3.97,17.8-12.29,20.28-8.31,2.48-18.12-2.22-21.4-10.24-2.87-7.01-1.57-16.31-7.58-20.93-5.75-4.41-14.34-1.12-19.49,3.99-5.15,5.1-8.69,11.84-14.63,15.99-5.94,4.15-15.94,4.08-18.79-2.59-3.99-9.34,9.14-22.43,1.18-28.74-7.43-5.89-17.11,7.5-26.44,5.79-8.19-1.5-9.47-13.53-4.91-20.5,4.55-6.97,12.33-11.25,17.26-17.96,4.93-6.71,5.14-18.48-2.7-21.31-7.82-2.83-14.9,5.72-18.03,13.42-3.13,7.7-6.75,17.11-14.95,18.47-16.56,2.73-22.71-30.14-39.13-26.65-7.16,1.52-12.3,10.15-19.52,8.95-8.88-1.48-8.38-14.56-4.64-22.74,8.71-19.06,22.14-35.94,38.76-48.72-3.19-11.19-.79-20.46,6.18-29.78,6.97-9.32,16.78-16.1,26.79-22.05,47.01-27.97,102.63-41.25,157.22-37.55,54.59,3.7,107.9,24.38,150.7,58.43,35.27,28.07,62.89,64.36,91.13,99.49,28.23,35.13,58.09,70.05,96.26,94.05,38.17,24,86.36,35.88,129.1,21.5,8.64,24.55,17.14,51.67,16.6,77.7-.18,8.56-1.91,18.71-9.7,22.28-5.91,2.7-12.75.33-18.95-1.6-6.2-1.93-15.47-6.07-20.33-1.76-.94,6.17-9.92,6.83-15.5,4.04-5.58-2.79-10.98-7.5-17.15-6.53-14.66,2.31-9.48,29.16-22.9,35.49-7.5,3.54-16.58-2.16-20.31-9.56-3.73-7.4-3.85-16.01-5.26-24.17-1.41-8.16-4.87-16.9-12.37-20.45-8.42-3.99-20.15-.59-26.34-7.55-5.33-5.99-2.61-15.23-.63-23.01,1.97-7.77,1.34-18.41-6.33-20.77-13.03-4.01-17.53,21.05-31.04,22.88-8.29,1.13-14.4-7.03-19.94-13.29-.56-4.23-2.61-6.26-6.55-7.91-3.94-1.64-8.73-1.04-12.13,1.54-4.5,3.4-6.09,9.38-6.81,14.97-.72,5.59-.91,11.46-3.63,16.39-4.49,8.15-16.08,11.41-24.17,6.79-8.09-4.61-11.17-16.23-6.43-24.24,2.95-4.98,8.58-9.48,7.34-15.12-.93-4.2-5.61-6.65-9.92-6.68-4.31-.02-8.39,1.75-12.46,3.17-4.07,1.42-8.55,2.5-12.63,1.11-4.08-1.39-7.22-6.18-5.42-10.09,1.84-3.99,8.01-6.32,6.9-10.56-.58-2.2-3.12-3.39-5.39-3.21-2.26.18-3.1,0-5.04,1.18Z"/>
        </g>
        <path class="cls-1" d="m1468.35,858.58c-.68-1.18-1.48-2.31-2.27-3.43-1.46-2.05-2.83-4-3.39-6.21-.6-2.36-.22-4.9.17-7.58.44-2.96.89-6.02.03-9.06-.72-2.55-2.25-4.67-3.73-6.72-1.57-2.16-3.04-4.21-3.41-6.54-.37-2.36.44-4.77,1.29-7.32.59-1.76,1.2-3.58,1.45-5.49.68-5.14-1.4-10.15-3.03-13.48-.54-1.1-1.11-2.18-1.68-3.27-1.48-2.82-2.89-5.49-3.74-8.38-.53-1.81-.7-3.54-.66-5.18,2.21-1.19,3.48-3.69,3.04-6.23-1.74-10.21-7.6-19.47-15.63-24.24-9.31-5.53-21.16-4.81-29.92,1.83-7.55,5.73-12.54,15.66-13.33,26.05-.2,2.66,1.4,5.1,3.85,6.02-.82,2.7-.91,5.84-.2,9.13.7,3.23,2.01,6.25,3.28,9.18.48,1.1.96,2.21,1.41,3.33,1.23,3.07,2.75,7.63,1.87,11.9-.33,1.6-.99,3.16-1.68,4.81-1.14,2.71-2.31,5.51-2.06,8.64.25,3.1,1.83,5.67,3.36,8.15,1.24,2.01,2.41,3.91,2.82,5.98.5,2.45-.08,5.03-.69,7.75-.63,2.83-1.29,5.74-.77,8.75.49,2.82,1.92,5.2,3.31,7.5.66,1.1,1.33,2.19,1.87,3.34,2.32,4.83,2.63,10.99.89,17.32-1.52,5.54-4.28,10.6-7.95,16.5-.45.72-.23,1.67.49,2.12.26.16.53.23.81.23.51,0,1.02-.26,1.31-.72,3.3-5.3,6.59-11.06,8.31-17.31,1.94-7.05,1.55-13.97-1.08-19.47-.59-1.23-1.3-2.42-2.01-3.6-1.3-2.16-2.53-4.19-2.92-6.44-.42-2.4.14-4.9.74-7.54.66-2.92,1.33-5.94.71-9.04-.53-2.6-1.9-4.82-3.22-6.98-1.4-2.27-2.72-4.42-2.91-6.78-.19-2.38.79-4.72,1.83-7.2.72-1.71,1.46-3.48,1.85-5.37,1.06-5.07-.65-10.23-2.02-13.66-.46-1.14-.95-2.28-1.44-3.41-1.27-2.91-2.46-5.67-3.09-8.6-.62-2.87-.47-5.53.26-7.78,1.74.36,3.48.69,5.23.93-.07,1.03,0,2.04.37,3.03,1.42,3.88,6.49,5.71,7.38,9.74,1.01,4.61-4.12,8.84-3.34,13.5.57,3.38,4.02,5.51,5.39,8.66,2.79,6.45-4.06,13.64-2.52,20.49,1.25,5.56,7.47,8.64,9.68,13.9,1.75,4.18.67,8.96-.75,13.26-1.42,4.3-3.18,8.69-2.72,13.19,1.51-4.18,4.17-7.81,6.51-11.59,2.34-3.78,4.23-8.19,3.46-12.57-1.37-7.81-10.66-12.98-10.5-20.91.12-5.81,5.49-11.27,3.51-16.73-1.33-3.66-5.69-5.94-6.04-9.82-.31-3.37,2.59-6.23,2.96-9.6.53-4.89-4.21-8.58-6.18-13.09-.12-.27-.18-.55-.28-.82,3.71.19,7.43.18,11.14-.1-.32,2.16-.25,4.51.27,6.94.7,3.24,2.01,6.27,3.29,9.2.47,1.1.95,2.19,1.4,3.3,1.23,3.07,2.75,7.63,1.86,11.9-.33,1.6-.99,3.16-1.68,4.81-1.14,2.71-2.31,5.51-2.06,8.64.25,3.1,1.83,5.67,3.36,8.15,1.24,2.01,2.41,3.91,2.83,5.98.5,2.46-.08,5.03-.69,7.75-.63,2.82-1.29,5.74-.77,8.75.49,2.81,1.92,5.19,3.31,7.5.66,1.1,1.33,2.2,1.88,3.34,2.32,4.83,2.63,10.99.89,17.32-1.52,5.55-4.28,10.61-7.96,16.5-.45.72-.23,1.67.49,2.12.26.16.53.23.81.23.51,0,1.02-.26,1.31-.72,3.3-5.3,6.59-11.05,8.31-17.31,1.94-7.05,1.55-13.97-1.08-19.47-.59-1.23-1.3-2.42-2.02-3.6-1.3-2.16-2.52-4.19-2.92-6.44-.41-2.4.15-4.9.74-7.54.66-2.92,1.33-5.94.71-9.04-.53-2.6-1.9-4.82-3.22-6.98-1.4-2.27-2.72-4.42-2.91-6.78-.19-2.38.79-4.73,1.83-7.2.72-1.71,1.46-3.48,1.85-5.37,1.06-5.08-.64-10.23-2.02-13.67-.45-1.13-.94-2.26-1.43-3.39-1.27-2.92-2.47-5.68-3.1-8.63-.52-2.39-.51-4.64-.08-6.64,1.63-.18,3.26-.4,4.88-.67.06.49.16.98.33,1.45,1.42,3.88,6.49,5.71,7.38,9.74,1.01,4.61-4.12,8.84-3.34,13.5.57,3.38,4.03,5.51,5.39,8.66,2.79,6.45-4.06,13.64-2.52,20.49,1.25,5.56,7.47,8.64,9.68,13.9,1.75,4.18.67,8.96-.75,13.26-1.42,4.3-3.18,8.69-2.72,13.19,1.51-4.18,4.17-7.81,6.51-11.59,2.34-3.78,4.23-8.19,3.46-12.57-1.37-7.81-10.66-12.98-10.5-20.91.12-5.81,5.49-11.27,3.51-16.73-1.33-3.66-5.69-5.94-6.04-9.82-.31-3.37,2.59-6.23,2.96-9.6.53-4.89-4.21-8.58-6.18-13.09-.18-.41-.29-.83-.42-1.25,2.59-.62,5.16-1.33,7.69-2.15.06,1.6.32,3.26.82,4.96.94,3.18,2.47,6.11,3.96,8.93.56,1.06,1.11,2.12,1.64,3.19,1.45,2.96,3.31,7.4,2.74,11.72-.21,1.62-.75,3.22-1.32,4.92-.93,2.78-1.89,5.66-1.41,8.76.48,3.07,2.25,5.51,3.96,7.87,1.38,1.91,2.69,3.72,3.26,5.75.68,2.41.29,5.02-.11,7.78-.42,2.86-.86,5.82-.12,8.78.7,2.77,2.31,5.04,3.86,7.24.74,1.04,1.48,2.09,2.12,3.19,2.67,4.65,3.44,10.76,2.18,17.21-1.11,5.64-3.48,10.9-6.71,17.04-.39.75-.1,1.68.65,2.08.23.12.47.17.72.17.55,0,1.09-.3,1.36-.82,2.9-5.52,5.75-11.51,7-17.88,1.41-7.18.51-14.04-2.52-19.33Z"/>
        <g>
          <path class="cls-8" d="m1578.6,866.28c0,5.67,4.61,10.27,10.29,10.27s10.29-4.6,10.29-10.27-4.61-10.27-10.29-10.27-10.29,4.6-10.29,10.27Z"/>
          <path class="cls-8" d="m1568.32,787.26c0,5.67,4.6,10.27,10.28,10.27s10.29-4.6,10.29-10.27-4.61-10.27-10.29-10.27-10.28,4.6-10.28,10.27Z"/>
          <path class="cls-8" d="m1552.12,691.36c0,5.67,4.6,10.27,10.28,10.27s10.29-4.6,10.29-10.27-4.6-10.27-10.29-10.27-10.28,4.6-10.28,10.27Z"/>
          <ellipse class="cls-8" cx="1561.81" cy="840.44" rx="7.27" ry="7.27"/>
          <ellipse class="cls-8" cx="1613.5" cy="751.92" rx="7.27" ry="7.27"/>
          <path class="cls-8" d="m1605,819.85c0,4.01,3.26,7.27,7.27,7.27s7.27-3.25,7.27-7.27-3.26-7.27-7.27-7.27-7.27,3.25-7.27,7.27Z"/>
          <path class="cls-8" d="m1558.8,891.83c0,2.84,2.3,5.14,5.14,5.14s5.14-2.3,5.14-5.14-2.3-5.14-5.14-5.14-5.14,2.3-5.14,5.14Z"/>
          <ellipse class="cls-8" cx="1539.24" cy="719.23" rx="5.14" ry="5.14"/>
          <path class="cls-8" d="m1614.4,666.34c0,2.84,2.3,5.14,5.14,5.14s5.14-2.3,5.14-5.14-2.3-5.14-5.14-5.14-5.14,2.3-5.14,5.14Z"/>
          <ellipse class="cls-8" cx="1579.96" cy="737.39" rx="7.27" ry="7.27"/>
        </g>
        <g>
          <path class="cls-2" d="m486.76,587.94c-29.4,36.72-51.77,79.75-60.2,126.01-8.43,46.26-2.22,95.84,21.53,136.43,19.14,32.72,48.74,58.44,81.52,77.51,32.78,19.07,68.8,31.9,105.05,43.07-5.6-1.06-12.97-1.97-18.66-1.97H2v-218.05c34.24,0,59.9-31.45,87.99-51.01,36.23-25.23,72.45-50.46,108.68-75.69,29.65-20.65,59.5-41.42,92.27-56.67,32.77-15.25,68.95-24.84,104.98-21.85,36.03,2.99,69.75,12.89,90.85,42.21Z"/>
          <path class="cls-8" d="m282.14,689.48c8.25,0,14.84,8.35,23.08,8.02,9.46-.38,14.55-12.2,12.72-21.48-1.83-9.28-7.96-17.07-11.61-25.8-3.65-8.73-4.02-20.41,3.56-26.07,11.69-8.72,29.82,4.53,42.51-2.66,7.03-3.98,9.57-12.85,10.12-20.9.55-8.05-.21-16.44,2.84-23.91,3.05-7.47,11.84-13.52,19.14-10.06,6.79,6.55,3.64,17.67,2.09,26.98-1.55,9.3,2.76,22.33,12.1,20.94,10.67-1.59,13.33-21.05,23.97-19.24,7.93,1.34,8.08,12.75,5.43,20.33-2.65,7.58-5.14,17.91,1.74,22.06,8.3,5.01,16.79-6.06,20.56-14.98,3.77-8.93,13.84-19.23,21.15-12.87,7.41,6.46-1.65,17.73-3.53,27.38-1.68,8.61,4.02,18.03,12.44,20.53,8.41,2.51,18.35-2.24,21.67-10.37,2.9-7.1,1.59-16.51,7.67-21.19,5.82-4.47,14.52-1.13,19.73,4.04,5.21,5.17,8.8,11.98,14.81,16.19,6.01,4.21,16.14,4.13,19.02-2.62,4.04-9.46-9.25-22.71-1.19-29.1,7.53-5.96,17.32,7.59,26.77,5.86,8.3-1.52,9.58-13.7,4.98-20.76-4.61-7.06-12.49-11.39-17.48-18.19-4.99-6.79-5.2-18.71,2.73-21.58,7.92-2.86,15.08,5.79,18.26,13.59,3.17,7.79,6.83,17.32,15.14,18.7,16.77,2.77,22.99-30.52,39.61-26.98,7.25,1.54,12.45,10.28,19.76,9.06,8.99-1.5,8.49-14.74,4.7-23.02-8.82-19.3-22.42-36.39-39.25-49.33,3.23-11.33.8-20.71-6.26-30.15-7.06-9.44-16.99-16.3-27.12-22.32-47.59-28.32-103.91-41.76-159.18-38.02-55.27,3.75-109.25,24.68-152.57,59.16-35.71,28.42-63.68,65.16-92.26,100.72-28.59,35.57-58.82,70.92-97.46,95.22-38.64,24.3-87.43,36.33-130.71,21.77-8.75,24.86-17.35,52.32-16.8,78.66.18,8.67,1.93,18.95,9.82,22.55,5.98,2.73,12.91.33,19.19-1.62,6.28-1.95,15.66-6.15,20.58-1.79.95,6.24,10.04,6.92,15.69,4.09,5.65-2.83,11.12-7.6,17.36-6.61,14.84,2.34,9.6,29.52,23.18,35.93,7.59,3.58,16.79-2.19,20.56-9.68,3.77-7.49,3.9-16.21,5.33-24.47,1.43-8.26,4.94-17.11,12.52-20.7,8.52-4.04,20.4-.6,26.66-7.65,5.39-6.07,2.64-15.42.64-23.29-2-7.87-1.36-18.64,6.41-21.03,13.2-4.05,17.75,21.31,31.43,23.17,8.39,1.14,14.58-7.12,20.19-13.45.56-4.28,2.65-6.34,6.63-8.01,3.99-1.66,8.84-1.05,12.28,1.56,4.55,3.44,6.17,9.5,6.9,15.16.73,5.66.92,11.6,3.68,16.6,4.55,8.25,16.28,11.55,24.47,6.88,8.19-4.67,11.31-16.44,6.51-24.55-2.99-5.04-8.69-9.59-7.43-15.31.94-4.26,5.68-6.74,10.04-6.76,4.36-.02,8.49,1.77,12.61,3.21,4.12,1.44,8.66,2.53,12.79,1.12,4.13-1.41,7.31-6.26,5.49-10.22-1.86-4.04-8.11-6.4-6.98-10.7.58-2.22,3.16-3.43,5.45-3.25s3.14,0,5.11,1.2Z"/>
        </g>
        <path class="cls-1" d="m1941.56,3172H-4.85V1099.11c47.69-252.44,145.82-335.19,216.14-182.27,58.02,126.17,100.48,390.59,166.92,399.85,51.99,7.25,104.89-151.79,152.24-68.01,26.05,46.1,41.1,153.66,64.5,217.76,36.83,100.89,88.77,75.86,128.08-9.79,46.51-101.35,90.33-285.53,142.46-241.88,42.02,35.19,71.6,214.58,114.59,214.83,42.45.26,72.65-175.31,114.59-200.94,53.02-32.4,99.07,183.6,152.58,167.18,52.71-16.18,84.36-243.85,134.16-312.81,44.04-60.99,91.81,12.98,136.81,62.35,45,49.37,101.3,60.93,130.4-81.33,17.84-87.24,54.48-53.02,79.92-1.58,13.06,26.41,25.13,61.6,39.23,78.08,27.72,32.4,56.94-12.8,84.67-45.04,27.73-32.24,61.37-46.76,82.39,30.61l6.75,2045.88Z"/>
        <path class="cls-7" d="m468.56,917.03c-1.91-1-3.63-2.37-5.02-4.02-2.06-2.43-3.38-5.41-5.38-7.89-5.04-6.23-13.52-8.39-19.97-13.16-2.92-2.16-5.4-4.85-8.16-7.2-2.77-2.35-5.95-4.41-9.54-4.94s-7.64.77-9.51,3.88c-.85,1.41-1.22,3.1-2.27,4.36-1.81,2.16-5.04,2.4-7.84,2.07-4.6-.54-9.05-2.16-13.68-2.41-4.63-.24-9.82,1.31-12,5.4-1.8,3.38-1.07,7.57.38,11.12-4.18,2.36-9.35,3.71-14.07,2.83-4.72-.88-9.11-3.46-12.17-7.16-5.42,3.93-8.22,10.6-7.89,17.28s4.22,13.09,10.01,16.46c4.96-5.57,12.93-8.34,20.28-7.02-.24,2.92-2.19,5.33-1.95,8.25.22,2.57,2.74,4.3,5.15,5.24,7.18,2.8,15.71,1.89,22.13-2.38,7.26,1.51,15.25,2.55,22.65,2.15.53,1.2.59,3,.95,4.26.36,1.26,1.14,2.54,2.41,2.87,1.11.29,2.27-.23,3.28-.79,3.83-2.08,7.33-4.75,10.36-7.88,7.35-.79,14.3-3.94,19.72-8.97,3.54-3.29,6.54-7.42,10.98-9.33.72-.31,1.53-.61,1.94-1.28.4-.68.02-1.86-.76-1.77Z"/>
        <path class="cls-6" d="m1628.8,1072.31c-2.15-.91-4.4-1.62-6.65-2.33-4.11-1.29-7.99-2.52-11.04-4.96-3.26-2.6-5.37-6.44-7.6-10.5-2.47-4.48-5.02-9.12-9.33-12.38-3.63-2.73-7.9-4.04-12.03-5.3-4.37-1.33-8.5-2.58-11.41-5.39-2.94-2.84-4.34-6.95-5.81-11.3-1.02-3-2.07-6.12-3.71-8.98-4.4-7.7-12.42-12.38-18.07-15.22-1.87-.94-3.76-1.83-5.66-2.72-4.94-2.31-9.6-4.49-13.75-7.55-2.6-1.92-4.62-4.1-6.26-6.38,1.78-3.91.92-8.62-2.3-11.63-12.94-12.11-30.5-18.66-46.36-16.87-18.4,2.08-33.79,15.31-38.84,33.38-4.36,15.6-.86,34.28,8.8,49.23,2.47,3.83,7.18,5.5,11.47,4.22,1.69,4.53,4.8,8.89,9.17,12.65,4.3,3.68,9.2,6.44,13.96,9.11,1.79,1.01,3.59,2.02,5.36,3.08,4.84,2.91,11.65,7.55,14.85,14.27,1.2,2.52,1.92,5.32,2.68,8.29,1.26,4.86,2.55,9.89,6.13,13.89,3.54,3.96,8.35,5.83,13,7.63,3.76,1.46,7.32,2.84,10.03,5.22,3.22,2.82,5.09,6.92,7.08,11.26,2.06,4.5,4.19,9.15,8.01,12.7,3.58,3.33,8,5.09,12.27,6.8,2.04.81,4.08,1.62,6,2.61,8.16,4.19,14.95,12.24,19.14,22.67,3.66,9.12,5.15,18.86,6.24,30.67.14,1.45,1.42,2.51,2.86,2.38.51-.05.97-.24,1.35-.53.7-.53,1.12-1.4,1.03-2.33-.99-10.62-2.47-21.87-6.6-32.14-4.66-11.6-12.34-20.62-21.62-25.39-2.08-1.06-4.27-1.95-6.46-2.82-4-1.59-7.78-3.1-10.64-5.76-3.05-2.83-4.87-6.82-6.8-11.04-2.13-4.65-4.33-9.46-8.39-13.03-3.41-3-7.58-4.61-11.61-6.17-4.26-1.65-8.28-3.21-10.98-6.23-2.72-3.05-3.81-7.25-4.96-11.7-.79-3.07-1.61-6.25-3.03-9.23-3.81-8-11.46-13.26-16.89-16.52-1.81-1.09-3.64-2.12-5.49-3.16-4.74-2.66-9.21-5.18-13.11-8.52-3.82-3.27-6.35-7.04-7.68-10.86,2.74-1.3,5.44-2.66,8.09-4.14.97,1.47,2.13,2.77,3.64,3.74,5.95,3.81,14.74,1.07,20.12,5.65,6.15,5.23,3.54,16.3,9.43,21.83,4.28,4.02,11.18,3.35,16.3,6.23,10.47,5.9,8.58,22.76,17.77,30.5,7.45,6.29,19.11,4.05,27.55,8.93,6.71,3.88,10.19,11.51,12.71,18.83,2.52,7.32,4.66,15.12,9.95,20.77-2.27-7.25-2.41-14.94-3.14-22.51-.73-7.56-2.71-15.52-8.29-20.68-9.95-9.22-27.95-6.66-35.94-17.62-5.85-8.03-4.19-21.01-12.53-26.41-5.6-3.62-13.89-2.22-18.39-7.12-3.91-4.26-2.92-11.17-5.9-16.12-4.34-7.21-14.61-7.33-21.96-11.44-.44-.24-.81-.56-1.23-.83,5.25-3.56,10.3-7.42,15.07-11.65,1.8,3.27,4.32,6.39,7.56,9.17,4.31,3.69,9.23,6.46,14,9.13,1.78,1,3.57,2,5.32,3.05,4.84,2.91,11.65,7.55,14.85,14.27,1.2,2.52,1.92,5.32,2.69,8.28,1.26,4.86,2.55,9.89,6.13,13.89,3.54,3.96,8.35,5.83,13,7.63,3.76,1.46,7.32,2.84,10.03,5.22,3.22,2.83,5.1,6.93,7.08,11.27,2.06,4.5,4.18,9.15,8,12.7,3.58,3.32,7.99,5.09,12.27,6.79,2.04.81,4.08,1.62,6.01,2.61,8.16,4.19,14.95,12.24,19.14,22.67,3.67,9.13,5.15,18.87,6.24,30.68.14,1.44,1.42,2.51,2.86,2.38.51-.05.97-.24,1.35-.53.7-.53,1.12-1.4,1.03-2.34-.99-10.62-2.46-21.86-6.6-32.15-4.66-11.6-12.34-20.62-21.62-25.39-2.08-1.06-4.28-1.94-6.47-2.82-4-1.59-7.77-3.1-10.63-5.75-3.05-2.84-4.87-6.82-6.8-11.04-2.13-4.65-4.33-9.46-8.39-13.04-3.41-3-7.58-4.61-11.61-6.17-4.26-1.65-8.28-3.21-10.98-6.23-2.72-3.05-3.81-7.25-4.96-11.7-.8-3.08-1.61-6.25-3.03-9.22-3.81-8.01-11.46-13.27-16.89-16.52-1.79-1.08-3.62-2.11-5.45-3.13-4.75-2.67-9.24-5.19-13.14-8.54-3.18-2.73-5.5-5.8-6.98-8.95,2.03-1.93,4.02-3.91,5.96-5.95.59.6,1.22,1.17,1.95,1.64,5.95,3.81,14.74,1.07,20.12,5.65,6.15,5.23,3.54,16.3,9.43,21.83,4.28,4.02,11.18,3.34,16.3,6.23,10.47,5.9,8.58,22.76,17.77,30.5,7.45,6.29,19.11,4.05,27.55,8.93,6.71,3.88,10.19,11.51,12.71,18.83,2.52,7.32,4.66,15.12,9.95,20.77-2.27-7.25-2.41-14.94-3.14-22.51-.73-7.56-2.71-15.52-8.29-20.68-9.95-9.22-27.95-6.66-35.94-17.62-5.85-8.03-4.19-21.01-12.53-26.41-5.6-3.62-13.89-2.22-18.39-7.12-3.91-4.26-2.92-11.17-5.9-16.12-4.34-7.21-14.61-7.33-21.96-11.44-.67-.37-1.26-.83-1.87-1.27,2.89-3.51,5.64-7.14,8.25-10.87,1.74,2.12,3.81,4.12,6.24,5.91,4.57,3.37,9.69,5.76,14.64,8.08,1.85.87,3.71,1.73,5.53,2.65,5.04,2.54,12.17,6.66,15.86,13.13,1.38,2.42,2.32,5.16,3.3,8.07,1.61,4.75,3.28,9.66,7.14,13.39,3.83,3.69,8.76,5.19,13.53,6.64,3.86,1.18,7.51,2.29,10.39,4.47,3.42,2.58,5.6,6.53,7.89,10.71,2.38,4.33,4.85,8.81,8.92,12.07,3.82,3.05,8.36,4.48,12.75,5.87,2.09.66,4.18,1.31,6.18,2.16,8.44,3.57,15.82,11.1,20.77,21.19,4.33,8.83,6.53,18.43,8.5,30.13.24,1.43,1.6,2.39,3.03,2.16.43-.08.82-.25,1.15-.5.75-.57,1.17-1.53,1.01-2.53-1.77-10.51-4.09-21.61-8.97-31.56-5.51-11.23-13.83-19.65-23.44-23.72Z"/>
      </g>
    </g>
  </g>
</svg>