<?xml version="1.0" encoding="UTF-8"?>
<svg id="_레이어_2" data-name="레이어 2" xmlns="http://www.w3.org/2000/svg" viewBox="0 0 308.69 216.72">
  <defs>
    <style>
      .cls-1 {
        fill: #4bbee3;
        opacity: .7;
      }
    </style>
  </defs>
  <g id="Layer_1" data-name="Layer 1">
    <path class="cls-1" d="m93.54,97.95c10.28,13.2,25.87,20.96,42.33,23.99-6.68-7.68-8.96-19.36-10.03-29.49,20.82-.13,43.75-2.99,63.94-8.07,7.57,1.77,14.84,4.77,21.46,8.83,2.52,1.55,5.65,3.29,8.21,1.82,2.88-1.66,2.97-7.54,6.12-8.59,14.32,4.98,27.11,14.25,36.3,26.29,4.24,5.55,7.86,12.5,6.16,19.28-1.48,5.9-6.73,10.2-12.35,12.52-5.62,2.32-11.74,3.08-17.65,4.56-9.16,2.29-18.28,6.69-23.63,14.47-5.35,7.78-5.3,20.94,1.5,27.5-.87-5.65,2.88-11.26,7.83-14.11,4.96-2.85,10.88-3.44,16.6-3.48,5.72-.04,11.49.42,17.12-.58,5.63-1,12.64-3.18,15.58-8.08-2,6.53.93,13.64,5.13,19.03,4.2,5.39,9.65,9.7,13.9,15.05,4.25,5.35,8.72,11.25,6.89,17.83,8.04-12.9,11.29-28.71,9.01-43.74-2.28-15.03-8.42-28.94-19.93-38.87-13.99-46.95-53.11-86.34-99.7-101.49,5.95-12.2,14.34-23.78,25.2-31.93-30.39-3.14-60.62,4.39-84.66,23.25-33.64-4.64-68.54.26-99.59,13.99-6.68,2.95-13.26,6.36-18.68,11.24C5.18,54.07.97,60.6.07,67.85c-.85,6.83,6.28,13.25,12.13,16.87,5.86,3.62,12.59,5.54,19.28,7.17,20.73,5.06,40.72,5.89,62.06,6.05Z"/>
  </g>
</svg>