<svg xmlns="http://www.w3.org/2000/svg" viewBox="0 0 48.51 38.81"><defs><style>.cls-1{fill:#fff;}</style></defs><title>Asset 2</title><g id="Layer_2" data-name="Layer 2"><g id="Layer_1-2" data-name="Layer 1"><path class="cls-1" d="M24.25,31.53a2.39,2.39,0,1,0-1.72-.7A2.32,2.32,0,0,0,24.25,31.53Zm0-9.7A2.44,2.44,0,0,0,26,17.68a2.44,2.44,0,0,0-3.45,3.45A2.31,2.31,0,0,0,24.25,21.83Zm0-9.7A2.39,2.39,0,0,0,26.68,9.7a2.43,2.43,0,1,0-4.85,0,2.39,2.39,0,0,0,2.42,2.43ZM43.66,38.81H4.85a4.69,4.69,0,0,1-3.43-1.43A4.66,4.66,0,0,1,0,34V24.25a4.68,4.68,0,0,0,3.43-1.42A4.67,4.67,0,0,0,4.85,19.4,4.66,4.66,0,0,0,3.43,16,4.69,4.69,0,0,0,0,14.55V4.85A4.68,4.68,0,0,1,1.42,1.42,4.68,4.68,0,0,1,4.85,0H43.66a4.66,4.66,0,0,1,3.42,1.42,4.69,4.69,0,0,1,1.43,3.43v9.7a4.87,4.87,0,0,0-4.85,4.85,4.85,4.85,0,0,0,4.85,4.85V34a4.88,4.88,0,0,1-4.85,4.85Zm0-4.85V27.77a9.9,9.9,0,0,1-3.55-3.55,9.59,9.59,0,0,1,0-9.64A9.87,9.87,0,0,1,43.66,11V4.85H4.85V11A9.87,9.87,0,0,1,8.4,14.58,9.35,9.35,0,0,1,9.7,19.4a9.3,9.3,0,0,1-1.3,4.82,9.9,9.9,0,0,1-3.55,3.55V34Z"/></g></g></svg>