<?xml version="1.0" encoding="UTF-8"?>
<svg id="_레이어_2" data-name="레이어 2" xmlns="http://www.w3.org/2000/svg" viewBox="0 0 199.46 201.92">
  <defs>
    <style>
      .cls-1 {
        fill: #c6f9c0;
        opacity: .7;
      }
    </style>
  </defs>
  <g id="Layer_1" data-name="Layer 1">
    <path class="cls-1" d="m184.24,104.42c-5.99-6.01-12.99-10.94-20.26-15.31-1.65-.99-3.35-1.97-5.22-2.44-4.04-1.01-8.27.51-11.93,2.49-2.24,1.21-4.4,2.61-6.65,3.79-1.12-7.61-4.37-15.21-9.29-21.05.24-.22.48-.43.73-.65,1.7-1.51,3.48-3.07,5.65-3.74,2.51-.78,5.32-.31,7.74-1.33,1.26-.53,2.33-1.44,3.24-2.47,2.34-2.66,3.63-6.22,3.54-9.77-.04-1.75-.28-7.8-3.2-10.64-2.99-2.9-8.68-2.57-10.47-2.51-3.54.11-7.03,1.59-9.56,4.08-.98.96-1.83,2.08-2.29,3.37-.89,2.47-.26,5.25-.89,7.8-.55,2.21-2,4.07-3.42,5.85-.46.58-.93,1.17-1.4,1.75-4.39-2.29-9.27-3.68-14.26-4.24,1.21-2.65,2.77-5.16,4.1-7.76,1.9-3.7,3.32-7.97,2.22-11.98-.51-1.86-1.52-3.54-2.56-5.17-4.53-7.17-9.61-14.06-15.75-19.92s-13.4-10.67-21.49-13.24c-3.98-1.27-8.36-1.97-12.28-.54-.65.24-1.31.56-1.66,1.15-.71,1.19.19,2.66,1.08,3.72,6.24,7.41,14.09,13.4,19.86,21.18,1.71,2.3,3.22,4.75,4.65,7.23,4.58,7.95,8.36,16.59,9.7,25.6-.43.07-.86.13-1.29.21-12.35,2.29-23.48,9.13-32.79,17.56-6.46,5.85-12.23,12.59-16.18,20.36-3.95,7.77-6.02,16.63-4.98,25.29.21,1.71.53,3.4.91,5.08-2.74.29-5.49.41-8.23.18-7.97-.67-15.42-4.31-23.36-5.27-1.52-.18-3.08-.26-4.55.15-1.47.41-2.85,1.4-3.41,2.82-.86,2.18.46,4.7,2.33,6.1,1.5,1.12,3.44,1.88,4.22,3.58.85,1.86-.02,4.3,1.2,5.94.76,1.03,2.12,1.41,3.39,1.56,1.27.15,2.6.13,3.77.63,1.65.71,2.73,2.3,4.17,3.37,2.28,1.69,5.35,1.96,8.15,1.45s5.4-1.69,8.05-2.71c2.55-.97,5.16-1.77,7.81-2.42.66,5.22.78,11.11-1.93,16.24-.72,1.36.44,2.92,1.93,2.54,6.57-1.64,13.49-1.5,20.51-.98-.37,2.36-.86,4.7-1.49,7-.75,2.74-1.67,5.45-1.9,8.28-.23,2.83.35,5.86,2.25,7.96,1.21,1.33,2.9,2.24,3.76,3.82.62,1.12.73,2.44,1,3.69.27,1.25.79,2.57,1.89,3.22,1.76,1.05,4.09-.06,6.03.6,1.77.6,2.72,2.46,3.98,3.84,1.58,1.72,4.22,2.78,6.3,1.71,1.36-.7,2.2-2.17,2.47-3.67.27-1.51.03-3.05-.3-4.55-1.74-7.8-6.09-14.87-7.55-22.73-.49-2.64-.64-5.32-.63-8,6.29.25,12.49-.03,18.4-1.92,10.81-3.44,19.41-11.64,26.9-20.17,4.73-5.39,9.27-11.13,11.79-17.85,1.6-4.27,2.33-8.8,2.96-13.32.17-1.2.32-2.41.45-3.61,8.67,1.28,17.04,4.77,24.78,9.01,2.52,1.38,4.99,2.83,7.33,4.49,7.91,5.6,14.07,13.32,21.62,19.39,1.08.87,2.57,1.73,3.74,1,.58-.36.9-1.04,1.12-1.69,1.34-3.95.54-8.32-.81-12.27-2.75-8.03-7.72-15.18-13.71-21.19Z"/>
  </g>
</svg>