<?xml version="1.0" encoding="UTF-8"?>
<svg id="_레이어_2" data-name="레이어 2" xmlns="http://www.w3.org/2000/svg" viewBox="0 0 35.87 25.11">
  <defs>
    <style>
      .cls-1 {
        fill: #fff;
      }

      .cls-2 {
        fill: #282b91;
      }
    </style>
  </defs>
  <g id="Layer_1" data-name="Layer 1">
    <g>
      <path class="cls-1" d="m35.13,3.92c-.41-1.54-1.63-2.76-3.17-3.17-2.8-.75-14.02-.75-14.02-.75,0,0-11.22,0-14.02.75-1.54.41-2.76,1.63-3.17,3.17-.75,2.8-.75,8.63-.75,8.63,0,0,0,5.84.75,8.63.41,1.54,1.63,2.76,3.17,3.17,2.8.75,14.02.75,14.02.75,0,0,11.22,0,14.02-.75,1.54-.41,2.76-1.63,3.17-3.17.75-2.8.75-8.63.75-8.63,0,0,0-5.84-.75-8.63"/>
      <polygon class="cls-2" points="14 17.5 23.1 12.25 14 7 14 17.5"/>
    </g>
  </g>
</svg>